<svg width="73" height="52" xmlns="http://www.w3.org/2000/svg" xmlns:xlink="http://www.w3.org/1999/xlink"><defs><path id="a" d="M.064.021h6.83v8.953H.064z"/><path id="c" d="M0 .047h9.805v12.076H0z"/><path id="e" d="M.027.047h9.8v12.078h-9.8z"/></defs><g fill="none" fill-rule="evenodd"><rect stroke="#C8C7C7" fill="#FFF" x=".5" y=".5" width="72" height="51" rx="5"/><path d="M34.121 15.372l-.667-3.18-.033-.002-1.16 3.182h1.86zm.645 3.073c-.08-.389-.162-.764-.235-1.14-.021-.11-.063-.15-.181-.15-.867.006-1.733.006-2.6 0-.117 0-.16.046-.194.145-.12.35-.25.695-.373 1.043-.028.077-.065.112-.154.112-.722-.004-1.444-.003-2.166-.003-.02 0-.04-.004-.079-.009l.322-.77 3.018-7.175c.202-.48.53-.7 1.052-.702.572 0 1.145.001 1.717-.002.094 0 .144.015.167.124.582 2.79 1.169 5.58 1.754 8.368.01.05.016.101.025.16h-2.073zM9 10.039l.05-.243h3.755c.615 0 1.003.325 1.117.93l.9 4.76c.009.047.024.094.047.185.087-.216.16-.394.231-.573.683-1.72 1.367-3.44 2.047-5.16.042-.107.093-.146.211-.145.68.006 1.361.003 2.042.003h.164c-.028.072-.049.127-.071.18a9894.704 9894.704 0 0 0-3.512 8.352c-.04.095-.087.128-.192.127-.701-.005-1.403-.005-2.104 0-.106 0-.149-.028-.176-.135-.59-2.283-1.187-4.563-1.775-6.846a1.058 1.058 0 0 0-.61-.742c-.647-.303-1.327-.5-2.02-.663-.03-.007-.058-.017-.104-.03" fill="#1A1F71"/><g transform="translate(22.412 9.614)"><mask id="b" fill="#fff"><use xlink:href="#a"/></mask><path d="M.064 8.508L.462 6.65c.373.131.73.28 1.1.381a3.71 3.71 0 0 0 1.683.084c.24-.045.466-.133.651-.3.296-.264.328-.69.03-.95-.241-.21-.528-.369-.802-.538-.407-.25-.844-.457-1.226-.74C.626 3.642.853 2.214 1.514 1.36 2.004.726 2.678.374 3.441.187 4.568-.09 5.68-.011 6.772.364c.038.013.075.03.122.05l-.39 1.81c-.246-.083-.481-.172-.722-.239-.532-.146-1.075-.21-1.62-.104a1.521 1.521 0 0 0-.563.234c-.362.251-.373.664-.02.93.269.203.574.359.864.534.36.217.742.406 1.081.654.862.629 1.149 1.503.856 2.528-.275.964-.955 1.542-1.862 1.89-.831.32-1.697.365-2.573.294a6.53 6.53 0 0 1-1.617-.322 4.737 4.737 0 0 1-.202-.076c-.018-.008-.034-.021-.062-.04" fill="#1A1F71" mask="url(#b)"/></g><path d="M22.783 9.796c-.083.394-.16.765-.24 1.135-.524 2.44-1.05 4.878-1.568 7.319-.035.163-.093.21-.26.207-.613-.011-1.226-.004-1.84-.004h-.194l.144-.698 1.509-7.018c.06-.28.118-.561.185-.84.01-.04.067-.096.103-.096.71-.006 1.422-.005 2.161-.005" fill="#1A1F71"/><g transform="translate(43.91 8.022)"><mask id="d" fill="#fff"><use xlink:href="#c"/></mask><path d="M6.416.047h.039c.075.011.152.01.228.013.144.007.286.03.427.055a6.042 6.042 0 0 1 2.528 1.07c.057.042.12.077.165.135l.002.016c-.01.032-.038.048-.062.067a5.987 5.987 0 0 0-2.23 4.925 5.983 5.983 0 0 0 1.463 3.674 6.1 6.1 0 0 0 .788.758c.016.013.034.025.04.047v.016c-.012.027-.036.042-.058.059a6.089 6.089 0 0 1-2.994 1.2c-.165.02-.332.025-.498.036-.173.012-.346.001-.518-.005a6.143 6.143 0 0 1-1.87-.398 6.129 6.129 0 0 1-2.255-1.524 5.968 5.968 0 0 1-.876-1.206 6.01 6.01 0 0 1-.708-2.202C.003 6.581.002 6.378 0 6.175v-.203c-.01-.844.187-1.643.534-2.409A6.055 6.055 0 0 1 2.843.943a6.076 6.076 0 0 1 2.546-.88c.09-.01.182-.005.272-.016h.069a.103.103 0 0 0 .068 0h.55a.103.103 0 0 0 .068 0" fill="#E9001B" mask="url(#d)"/></g><g transform="translate(53.682 8.022)"><mask id="f" fill="#fff"><use xlink:href="#e"/></mask><path d="M.027 10.818v-.008c.005-.025.026-.037.043-.051a6.002 6.002 0 0 0 2.155-5.772A5.956 5.956 0 0 0 .832 2.116a6.035 6.035 0 0 0-.765-.732C.049 1.37.03 1.358.027 1.335a.02.02 0 0 1 0-.008c.006-.025.027-.036.044-.05a5.974 5.974 0 0 1 1.78-.944C2.211.215 2.58.13 2.956.08A3.77 3.77 0 0 1 3.37.052h.055c.02-.003.041.005.06-.005h.57c.019.01.04.002.06.005h.054a4.2 4.2 0 0 1 .863.104 6.077 6.077 0 0 1 4.62 4.397c.076.288.13.58.16.877.01.106.013.214.01.32v.08c.003.024-.005.049.006.072v.35c-.01.027-.003.054-.005.08v.072a4.72 4.72 0 0 1-.165 1.17 6.017 6.017 0 0 1-1.3 2.465 6.064 6.064 0 0 1-4.365 2.076c-.08 0-.16.012-.24.01a6.244 6.244 0 0 1-2.173-.41 6.111 6.111 0 0 1-1.506-.843c-.019-.015-.043-.025-.047-.054" fill="#F59C1B" mask="url(#f)"/></g><path d="M53.709 9.357c.103.072.196.156.29.238a6.166 6.166 0 0 1 1.44 1.913 5.982 5.982 0 0 1 .56 2.035 5.976 5.976 0 0 1-1.03 3.953 6.254 6.254 0 0 1-.876 1.012 3.441 3.441 0 0 1-.384.324 6.235 6.235 0 0 1-.922-.899 6.01 6.01 0 0 1-1.275-2.685 6.182 6.182 0 0 1-.105-1.42 5.95 5.95 0 0 1 .301-1.636 6.043 6.043 0 0 1 2.001-2.835" fill="#FE5E00"/><path d="M0 46.938h73A5.062 5.062 0 0 1 67.938 52H5.062A5.062 5.062 0 0 1 0 46.938z" fill="#4FB2CC"/><path d="M15.42 34.599a2.7 2.7 0 0 1 .95.837c.25.354.376.84.376 1.457 0 .565-.122 1.041-.367 1.428a2.87 2.87 0 0 1-.95.936c-.39.236-.828.407-1.316.512a6.96 6.96 0 0 1-1.465.158c-.74 0-1.419-.106-2.039-.316-.583-.197-1.108-.545-1.574-1.044a.134.134 0 0 1 .008-.188l1.388-1.295a.135.135 0 0 1 .19.008c.277.296.574.542.889.737.35.217.775.325 1.276.325.172 0 .35-.02.535-.06.185-.039.356-.104.515-.196.158-.092.287-.207.386-.345a.806.806 0 0 0 .148-.482c0-.328-.126-.572-.376-.729a3.357 3.357 0 0 0-.95-.384c-.383-.099-.796-.19-1.237-.276a4.79 4.79 0 0 1-1.238-.414c-.383-.19-.7-.456-.95-.797-.25-.342-.376-.814-.376-1.418 0-.525.109-.982.326-1.369.218-.387.505-.706.862-.955.356-.25.765-.434 1.227-.552a5.645 5.645 0 0 1 3.286.148c.58.203 1.057.541 1.43 1.014a.133.133 0 0 1-.017.181l-1.383 1.238a.135.135 0 0 1-.197-.018c-.452-.566-1.043-.85-1.773-.85-.317 0-.627.08-.93.237-.304.158-.456.414-.456.768 0 .29.126.5.377.63.25.132.567.244.95.335.382.092.795.187 1.237.286.442.098.854.25 1.237.453zM47.496 30c.075 0 .137.061.137.136v9.181a.137.137 0 0 1-.137.137h-1.983a.137.137 0 0 1-.137-.137v-1.38h-.04a3.322 3.322 0 0 1-1.029 1.231c-.462.348-1.089.522-1.88.522-.634 0-1.172-.102-1.614-.305a2.901 2.901 0 0 1-1.079-.827 3.215 3.215 0 0 1-.594-1.192 5.417 5.417 0 0 1-.178-1.398v-5.832c0-.075.061-.136.137-.136h2.102c.075 0 .137.061.137.136v4.65c0 .263.013.555.04.876.026.322.095.624.207.906.112.283.284.52.515.71.23.19.557.285.98.285.395 0 .729-.066 1-.197.27-.131.494-.308.672-.532.178-.223.307-.479.386-.768.08-.289.12-.59.12-.906v-5.024c0-.075.06-.136.136-.136h2.102zm16.075 3.476c.012.296.02.555.02.778v5.3a.137.137 0 0 1-.137.136H61.59a.137.137 0 0 1-.137-.136V38.39h-.059c-.343.539-.779.93-1.306 1.172a4.118 4.118 0 0 1-1.743.365 4.65 4.65 0 0 1-1.276-.178 3.465 3.465 0 0 1-1.109-.532 2.737 2.737 0 0 1-.782-.886c-.198-.354-.297-.768-.297-1.24 0-.513.092-.949.277-1.31.185-.361.432-.663.743-.906a3.77 3.77 0 0 1 1.079-.581 7.419 7.419 0 0 1 1.276-.325 11.45 11.45 0 0 1 1.336-.138c.45-.02.872-.03 1.268-.03h.593v-.256c0-.59-.204-1.034-.613-1.33-.41-.295-.93-.442-1.564-.442a3.69 3.69 0 0 0-2.438.897.137.137 0 0 1-.188-.004l-1.057-1.052a.137.137 0 0 1 0-.195 4.594 4.594 0 0 1 1.753-1.064A6.848 6.848 0 0 1 59.533 30c.673 0 1.24.076 1.703.227.461.15.844.344 1.148.58.303.237.537.51.702.818.165.308.284.62.357.935.072.316.115.62.129.916zm-2.257 2.511v-.531h-.495c-.33 0-.7.013-1.109.04a5.862 5.862 0 0 0-1.158.186 2.66 2.66 0 0 0-.92.433c-.251.19-.376.457-.376.798a1 1 0 0 0 .148.561c.1.151.228.28.386.384.159.106.337.181.535.227.198.046.396.069.593.069.819 0 1.422-.194 1.812-.581.389-.387.584-.916.584-1.586zM25.81 31.34c.389.434.693.969.91 1.606.218.636.327 1.368.327 2.196v.513a.136.136 0 0 1-.137.136h-7.108c.079.71.356 1.261.831 1.655.475.394 1.05.59 1.722.59.594 0 1.092-.12 1.495-.364.366-.22.692-.493.976-.818a.137.137 0 0 1 .186-.02l1.455 1.157c.06.048.068.137.018.195-.522.604-1.1 1.041-1.734 1.308a5.513 5.513 0 0 1-2.158.434 5.731 5.731 0 0 1-2.02-.355 4.847 4.847 0 0 1-1.642-1.005 4.761 4.761 0 0 1-1.099-1.565c-.27-.61-.406-1.29-.406-2.039 0-.748.135-1.428.406-2.038.27-.61.637-1.133 1.099-1.566a4.847 4.847 0 0 1 1.643-1.004 5.727 5.727 0 0 1 2.02-.356c.66 0 1.264.115 1.811.345a3.89 3.89 0 0 1 1.406.994zm-6.008 2.679h4.87c-.014-.696-.231-1.244-.654-1.645-.422-.4-1.01-.6-1.762-.6-.712 0-1.276.203-1.692.61-.416.407-.67.952-.762 1.635zm34.956-4.001a.135.135 0 0 1 .117.135v2.005a.137.137 0 0 1-.158.135 4.74 4.74 0 0 0-.246-.034 3.202 3.202 0 0 0-.28-.013c-.554 0-1 .102-1.336.306a2.412 2.412 0 0 0-.772.699 2.32 2.32 0 0 0-.356.788c-.06.262-.09.46-.09.59v4.926a.137.137 0 0 1-.136.136H49.4a.137.137 0 0 1-.137-.136v-9.181c0-.076.061-.137.137-.137h2.102c.075 0 .136.061.136.137v1.36h.04c.264-.551.64-.978 1.128-1.28.488-.302 1.05-.453 1.683-.453a2.2 2.2 0 0 1 .27.017zM38.374 38.59l.917 1.308a.136.136 0 0 1-.018.178 4.375 4.375 0 0 1-6.069-.155 5.684 5.684 0 0 1-.834-.009 5.334 5.334 0 0 1-1.52-.35 4.977 4.977 0 0 1-1.63-1.027 4.805 4.805 0 0 1-1.091-1.574 5.009 5.009 0 0 1-.403-2.033c0-.743.134-1.418.403-2.024a4.724 4.724 0 0 1 1.09-1.554 4.811 4.811 0 0 1 1.632-.997A5.685 5.685 0 0 1 32.856 30c.707 0 1.375.117 2.004.352a4.817 4.817 0 0 1 1.631.997c.459.43.822.948 1.09 1.554.27.606.404 1.28.404 2.024a5.02 5.02 0 0 1-.403 2.033c-.14.32-.306.614-.498.885a.138.138 0 0 1-.196.028l-1.604-1.24a.136.136 0 0 1-.038-.168c.068-.141.127-.288.174-.443a3.645 3.645 0 0 0 0-2.18 3.03 3.03 0 0 0-.5-.968 2.515 2.515 0 0 0-.846-.694c-.34-.176-.747-.264-1.218-.264-.472 0-.878.088-1.219.264a2.51 2.51 0 0 0-.844.694c-.223.287-.39.61-.502.968a3.633 3.633 0 0 0 0 2.18c.111.365.279.69.502.977.222.287.504.522.844.704l.051.025c.123.061.255.11.393.149-.014-.062-.03-.123-.042-.186a4.326 4.326 0 0 1-.077-.699.136.136 0 0 1 .116-.137l1.582-.254a.137.137 0 0 1 .159.138l-.002.077a2.488 2.488 0 0 0 1.742 2.447 2.516 2.516 0 0 0 2.605-.69.136.136 0 0 1 .21.016z" fill="#009C5C"/></g></svg>